<?xml version="1.0" encoding="UTF-8"?>
<svg height="600" width="800" xmlns="http://www.w3.org/2000/svg"
    xmlns:xlink="http://www.w3.org/1999/xlink">
    <g id="Notes" font-family="'LucidaGrande', 'Lucida Grande', sans-serif" font-size="13">
        <rect fill="white" height="600.0" width="800.0" x="0.0" y="0.0" />
        <g font-size="13">
            <text x="18.0" y="176.0">Small</text>
            <text x="18.0" y="376.0">Medium</text>
            <text x="18.0" y="576.0">Large</text>
        </g>
        <g font-size="9">
            <text x="250.0" y="30.0">Ultralight</text>
            <text x="450.0" y="30.0">Regular</text>
            <text x="650.0" y="30.0">Black</text>
            <text id="template-version" fill="#505050" text-anchor="end" x="785.0" y="575.0">Template
                v.3.0</text>
            <a href="https://mat.tt">
                <text fill="#505050" text-anchor="end" x="785.0" y="590.0">Mattt</text>
            </a>
        </g>
    </g>
    <g id="Guides" stroke="rgb(39, 170, 225)" stroke-width="0.5">
        <path id="Capline-S" d="M18,76 l800,0" />
        <path id="H-reference"
            d="M85,145.755 L87.685,145.755 L113.369,79.287 L114.052,79.287 L114.052,76 L112.148,76 L85,145.755 Z M95.693,121.536 L130.996,121.536 L130.263,119.313 L96.474,119.313 L95.693,121.536 Z M139.15,145.755 L141.787,145.755 L114.638,76 L113.466,76 L113.466,79.287 L139.15,145.755 Z"
            stroke="none" />
        <path id="Baseline-S" d="M18,146 l800,0" />
        <path id="left-margin-Ultralight-S" d="M221,56 l0,110" />
        <path id="right-margin-Ultralight-S" d="M309,56 l0,110" />
        <path id="left-margin-Regular-S" d="M421,56 l0,110" />
        <path id="right-margin-Regular-S" d="M509,56 l0,110" />
        <path id="left-margin-Black-S" d="M621,56 l0,110" />
        <path id="right-margin-Black-S" d="M709,56 l0,110" />
        <path id="Capline-M" d="M18,276 l800,0" />
        <path id="Baseline-M" d="M18,346 l800,0" />
        <path id="Capline-L" d="M18,476 l800,0" />
        <path id="Baseline-L" d="M18,546 l800,0" />
    </g>
    <g id="Symbols">
        <g id="Ultralight-S">
            <path
                d="M275.818,82.648 C272.871,79.779 268.176,79.779 265.229,82.648 L236.994,110.337 C236.011,111.292 234.447,111.292 233.465,110.337 C232.998,109.883 232.734,109.259 232.734,108.607 C232.734,107.955 232.998,107.331 233.465,106.876 L261.7,79.186 C266.612,74.407 274.435,74.407 279.347,79.186 C282.119,81.882 283.432,85.743 282.878,89.57 C286.753,89.019 290.664,90.298 293.464,93.031 L293.611,93.178 C295.948,95.45 297.266,98.571 297.266,101.831 C297.266,105.09 295.948,108.211 293.611,110.484 L268.074,135.525 C267.919,135.676 267.831,135.884 267.831,136.101 C267.831,136.318 267.919,136.526 268.074,136.678 L273.319,141.823 C273.786,142.277 274.05,142.901 274.05,143.553 C274.05,144.205 273.786,144.829 273.319,145.284 C272.336,146.239 270.773,146.239 269.79,145.284 L264.546,140.142 C263.454,139.081 262.838,137.624 262.838,136.103 C262.838,134.581 263.454,133.124 264.546,132.064 L290.082,107.02 C291.484,105.656 292.274,103.783 292.274,101.828 C292.274,99.872 291.484,98 290.082,96.636 L289.936,96.492 C286.992,93.628 282.304,93.624 279.355,96.484 L258.318,117.116 L258.312,117.122 L258.025,117.406 C257.042,118.363 255.476,118.363 254.493,117.406 C254.026,116.952 253.762,116.328 253.762,115.676 C253.762,115.024 254.026,114.4 254.493,113.945 L275.827,93.022 C277.224,91.658 278.011,89.786 278.01,87.833 C278.008,85.88 277.218,84.01 275.818,82.648 Z M272.289,89.57 C272.757,89.115 273.02,88.491 273.02,87.839 C273.02,87.187 272.757,86.563 272.289,86.109 C271.306,85.152 269.74,85.152 268.758,86.109 L247.876,106.589 C245.539,108.861 244.221,111.982 244.221,115.242 C244.221,118.501 245.539,121.622 247.876,123.895 C252.788,128.673 260.61,128.673 265.522,123.895 L286.407,103.415 C286.874,102.96 287.138,102.336 287.138,101.684 C287.138,101.032 286.874,100.408 286.407,99.954 C285.424,98.997 283.858,98.997 282.875,99.954 L261.994,120.433 C259.047,123.302 254.352,123.302 251.405,120.433 C250.003,119.07 249.213,117.197 249.213,115.242 C249.213,113.286 250.003,111.414 251.405,110.05 L272.289,89.57 Z" />
        </g>
        <g id="Regular-S">
            <path
                d="M475.818,82.648 C472.871,79.779 468.176,79.779 465.229,82.648 L436.994,110.337 C436.011,111.292 434.447,111.292 433.465,110.337 C432.998,109.883 432.734,109.259 432.734,108.607 C432.734,107.955 432.998,107.331 433.465,106.876 L461.7,79.186 C466.612,74.407 474.435,74.407 479.347,79.186 C482.119,81.882 483.432,85.743 482.878,89.57 C486.753,89.019 490.664,90.298 493.464,93.031 L493.611,93.178 C495.948,95.45 497.266,98.571 497.266,101.831 C497.266,105.09 495.948,108.211 493.611,110.484 L468.074,135.525 C467.919,135.676 467.831,135.884 467.831,136.101 C467.831,136.318 467.919,136.526 468.074,136.678 L473.319,141.823 C473.786,142.277 474.05,142.901 474.05,143.553 C474.05,144.205 473.786,144.829 473.319,145.284 C472.336,146.239 470.773,146.239 469.79,145.284 L464.546,140.142 C463.454,139.081 462.838,137.624 462.838,136.103 C462.838,134.581 463.454,133.124 464.546,132.064 L490.082,107.02 C491.484,105.656 492.274,103.783 492.274,101.828 C492.274,99.872 491.484,98 490.082,96.636 L489.936,96.492 C486.992,93.628 482.304,93.624 479.355,96.484 L458.318,117.116 L458.312,117.122 L458.025,117.406 C457.042,118.363 455.476,118.363 454.493,117.406 C454.026,116.952 453.762,116.328 453.762,115.676 C453.762,115.024 454.026,114.4 454.493,113.945 L475.827,93.022 C477.224,91.658 478.011,89.786 478.01,87.833 C478.008,85.88 477.218,84.01 475.818,82.648 Z M472.289,89.57 C472.757,89.115 473.02,88.491 473.02,87.839 C473.02,87.187 472.757,86.563 472.289,86.109 C471.307,85.152 469.74,85.152 468.758,86.109 L447.876,106.589 C445.539,108.861 444.221,111.982 444.221,115.242 C444.221,118.501 445.539,121.622 447.876,123.895 C452.788,128.673 460.61,128.673 465.522,123.895 L486.407,103.415 C486.874,102.96 487.138,102.336 487.138,101.684 C487.138,101.032 486.874,100.408 486.407,99.954 C485.424,98.997 483.858,98.997 482.875,99.954 L461.994,120.433 C459.047,123.302 454.352,123.302 451.405,120.433 C450.003,119.07 449.213,117.197 449.213,115.242 C449.213,113.286 450.003,111.414 451.405,110.05 L472.289,89.57 Z" />
        </g>
        <g id="Black-S">
            <path
                d="M675.818,82.648 C672.871,79.779 668.176,79.779 665.229,82.648 L636.994,110.337 C636.011,111.292 634.447,111.292 633.465,110.337 C632.998,109.883 632.734,109.259 632.734,108.607 C632.734,107.955 632.998,107.331 633.465,106.876 L661.7,79.186 C666.612,74.407 674.435,74.407 679.347,79.186 C682.119,81.882 683.432,85.743 682.878,89.57 C686.753,89.019 690.664,90.298 693.464,93.031 L693.611,93.178 C695.948,95.45 697.266,98.571 697.266,101.831 C697.266,105.09 695.948,108.211 693.611,110.484 L668.074,135.525 C667.919,135.676 667.831,135.884 667.831,136.101 C667.831,136.318 667.919,136.526 668.074,136.678 L673.319,141.823 C673.786,142.277 674.05,142.901 674.05,143.553 C674.05,144.205 673.786,144.829 673.319,145.284 C672.336,146.239 670.773,146.239 669.79,145.284 L664.546,140.142 C663.454,139.081 662.838,137.624 662.838,136.103 C662.838,134.581 663.454,133.124 664.546,132.064 L690.082,107.02 C691.484,105.656 692.274,103.783 692.274,101.828 C692.274,99.872 691.484,98 690.082,96.636 L689.936,96.492 C686.992,93.628 682.304,93.624 679.355,96.484 L658.318,117.116 L658.312,117.122 L658.025,117.406 C657.042,118.363 655.476,118.363 654.493,117.406 C654.026,116.952 653.762,116.328 653.762,115.676 C653.762,115.024 654.026,114.4 654.493,113.945 L675.827,93.022 C677.224,91.658 678.011,89.786 678.01,87.833 C678.008,85.88 677.218,84.01 675.818,82.648 Z M672.289,89.57 C672.757,89.115 673.02,88.491 673.02,87.839 C673.02,87.187 672.757,86.563 672.289,86.109 C671.307,85.152 669.74,85.152 668.758,86.109 L647.876,106.589 C645.539,108.861 644.221,111.982 644.221,115.242 C644.221,118.501 645.539,121.622 647.876,123.895 C652.788,128.673 660.61,128.673 665.522,123.895 L686.407,103.415 C686.874,102.96 687.138,102.336 687.138,101.684 C687.138,101.032 686.874,100.408 686.407,99.954 C685.424,98.997 683.858,98.997 682.875,99.954 L661.994,120.433 C659.047,123.302 654.352,123.302 651.405,120.433 C650.003,119.07 649.213,117.197 649.213,115.242 C649.213,113.286 650.003,111.414 651.405,110.05 L672.289,89.57 Z" />
        </g>
    </g>
</svg>